<?xml version="1.0" encoding="utf-8"?>
<!-- Generator: Adobe Illustrator 16.0.0, SVG Export Plug-In . SVG Version: 6.00 Build 0)  -->
<!DOCTYPE svg PUBLIC "-//W3C//DTD SVG 1.1//EN" "http://www.w3.org/Graphics/SVG/1.1/DTD/svg11.dtd">
<svg version="1.1" id="Layer_1" xmlns="http://www.w3.org/2000/svg" xmlns:xlink="http://www.w3.org/1999/xlink" x="0px" y="0px"
	 width="160px" height="160px" viewBox="0 0 160 160" enable-background="new 0 0 160 160" xml:space="preserve">
<path opacity="0.2" fill="#727270" d="M16.526,116.32L16.526,116.32h7.364v8.466H7.514c-0.545,0-1.364-0.545-1.364-1.371V17.486
	c0-0.819,0.819-1.642,1.364-1.642h124.229c0.815,0,1.635,0.822,1.635,1.642v13.92h-9.284v-5.732c0-0.817-0.545-1.362-1.09-1.362
	H16.526c-0.545,0-1.1,0.545-1.1,1.362v89.557C15.426,116.05,15.981,116.32,16.526,116.32L16.526,116.32z"/>
<path opacity="0.2" fill="#727270" d="M152.488,34.139H28.265c-0.818,0-1.366,0.545-1.366,1.366v105.935
	c0,0.818,0.548,1.639,1.366,1.639h124.223c0.546,0,1.365-0.819,1.365-1.639V35.505C153.854,34.684,153.033,34.139,152.488,34.139z
	 M58.57,59.806c5.184,0,9.286,4.094,9.286,9.283c0,4.915-4.102,9.012-9.286,9.012c-4.919,0-9.012-4.097-9.012-9.012
	C49.558,63.899,53.65,59.806,58.57,59.806z M50.924,121.506l11.738-26.211l14.202,13.928l16.104-25.662l21.294,22.931L133.648,66.9
	l3.828,54.606H50.924z"/>
<polygon opacity="0.8" fill="#8CC63F" points="114.262,106.491 92.968,83.561 76.864,109.223 62.662,95.295 50.924,121.506 
	137.477,121.506 133.648,66.9 "/>
<path opacity="0.8" fill="#67CDFD" d="M58.57,78.101c5.184,0,9.286-4.097,9.286-9.012c0-5.189-4.102-9.283-9.286-9.283
	c-4.92,0-9.012,4.093-9.012,9.283C49.558,74.004,53.651,78.101,58.57,78.101z"/>
</svg>
