<?xml version="1.0" encoding="utf-8"?>
<!-- Generator: Adobe Illustrator 16.0.0, SVG Export Plug-In . SVG Version: 6.00 Build 0)  -->
<!DOCTYPE svg PUBLIC "-//W3C//DTD SVG 1.1//EN" "http://www.w3.org/Graphics/SVG/1.1/DTD/svg11.dtd">
<svg version="1.1" id="Layer_1" xmlns="http://www.w3.org/2000/svg" xmlns:xlink="http://www.w3.org/1999/xlink" x="0px" y="0px"
	 width="160px" height="160px" viewBox="0 0 160 160" enable-background="new 0 0 160 160" xml:space="preserve">
<path opacity="0.2" fill="#727270" d="M143.818,8.764H16.158c-5.132,0-9.177,4.05-9.177,9.177v123.071c0,4.853,4.045,8.9,9.177,8.9
	h127.66c5.119,0,9.166-4.049,9.166-8.9V17.941C152.984,12.813,148.938,8.764,143.818,8.764z M125.465,17.941h13.758v4.589v8.906
	h-13.758V17.941z M89.025,17.941h13.769v13.495H89.025V17.941z M52.587,17.941h13.771v13.495H52.587V17.941z M16.158,17.941h13.761
	l-0.271,13.495h-13.49V17.941z M143.818,141.012H16.158V40.614h127.66V141.012z"/>
<path opacity="0.7" fill="#FBB03B" d="M108.188,86.764L108.188,86.764c4.594,2.154,4.594,5.937,0,8.09l-47.502,23.756
	c-4.313,2.16-8.097,0-8.097-5.127V68.14c0-5.127,3.784-7.286,8.097-5.127L108.188,86.764z"/>
</svg>
