<?xml version="1.0" encoding="utf-8"?>
<!-- Generator: Adobe Illustrator 16.0.0, SVG Export Plug-In . SVG Version: 6.00 Build 0)  -->
<!DOCTYPE svg PUBLIC "-//W3C//DTD SVG 1.1//EN" "http://www.w3.org/Graphics/SVG/1.1/DTD/svg11.dtd">
<svg version="1.1" id="Layer_1" xmlns="http://www.w3.org/2000/svg" xmlns:xlink="http://www.w3.org/1999/xlink" x="0px" y="0px"
	 width="160px" height="160px" viewBox="0 0 160 160" enable-background="new 0 0 160 160" xml:space="preserve">
<path fill-rule="evenodd" clip-rule="evenodd" fill="#727270" d="M35.23,23.805V36.82c7.19,0.673,12.569,6.735,12.569,13.917
	c0,7.4-5.379,13.454-12.569,14.135v70.238h-3.362V64.872c-6.958-0.681-12.563-6.735-12.563-14.135
	c0-7.182,5.604-13.244,12.563-13.917V23.805H35.23z"/>
<path fill-rule="evenodd" clip-rule="evenodd" fill="#00A99D" d="M128.137,99.428c6.957,0.678,12.561,6.724,12.561,13.914
	c0,7.405-5.604,13.467-12.561,14.129v7.639h-3.371v-7.639c-6.955-0.662-12.563-6.724-12.563-14.129
	c0-7.19,5.607-13.236,12.563-13.914V23.805h3.371V99.428z"/>
<path fill-rule="evenodd" clip-rule="evenodd" fill="#727270" d="M83.027,66.899c6.96,0.663,12.57,6.955,12.57,14.129
	s-5.61,13.464-12.57,14.132v39.949h-3.362V95.16c-7.181-0.668-12.569-6.957-12.569-14.132s5.388-13.467,12.569-14.129V23.805h3.362
	V66.899z"/>
</svg>
