<?xml version="1.0" encoding="utf-8"?>
<!-- Generator: Adobe Illustrator 16.0.0, SVG Export Plug-In . SVG Version: 6.00 Build 0)  -->
<!DOCTYPE svg PUBLIC "-//W3C//DTD SVG 1.1//EN" "http://www.w3.org/Graphics/SVG/1.1/DTD/svg11.dtd">
<svg version="1.1" id="Layer_1" xmlns="http://www.w3.org/2000/svg" xmlns:xlink="http://www.w3.org/1999/xlink" x="0px" y="0px"
	 width="160px" height="160px" viewBox="0 0 160 160" enable-background="new 0 0 160 160" xml:space="preserve">
<g>
	<g>
		<path fill="#58BF91" d="M80.244,6.841c-40.448,0-73.358,32.912-73.358,73.351c0,40.452,32.91,73.356,73.358,73.356
			c40.446,0,73.354-32.904,73.354-73.356C153.598,39.753,120.689,6.841,80.244,6.841z M80.244,17.603
			c34.505,0,62.6,28.074,62.6,62.592c0,8.759-1.826,17.079-5.089,24.666c-3.511-16.71-4.432-33.703-6.613-50.613
			c-0.534-4.14-5.727-7.801-9.188-3.815c-6.052,6.964-9.57,15.931-11.736,25.487c-1.207-8.6-2.3-17.186-3.549-25.772
			c-0.699-4.918-7.645-4.855-9.838-1.303C88.373,62.568,85.929,78.194,81.42,93.21c-0.743-8.727-0.926-17.528-2.538-26.173
			c-0.638-3.33-5.16-5.036-7.914-3.204c-6.365,4.193-10.575,9.799-13.845,16.038c0.067-8.273-0.653-16.414-4.378-24.343
			c-1.833-3.889-7.272-3.083-9.298,0c-9.37,14.204-14.592,30.293-22.221,45.345c-2.271-6.476-3.582-13.425-3.582-20.678
			C17.647,45.677,45.719,17.603,80.244,17.603z M80.244,142.782c-22.546,0-42.289-12.019-53.301-29.955
			c0.061-0.096,0.157-0.142,0.222-0.241c7.495-13.1,12.414-27.346,19.283-40.686c1.452,11.812-1.475,24.614-0.208,36.186
			c0.678,6.158,8.275,7.175,10.583,1.429c3.912-9.772,6.338-21.555,12.945-30.07c1.111,11.736,0.911,23.48,4.479,34.959
			c1.318,4.233,7.601,5.598,9.833,1.284c7.404-14.208,9.566-30.158,14.64-45.068c1.964,14.666,3.996,29.306,7.277,43.777
			c1.433,6.28,10.074,4.302,10.598-1.429c0.944-10.965,1.49-27.713,5.762-41.079c1.291,12.453,2.563,24.887,5.268,37.17
			c0.733,3.243,3.484,4.229,5.983,3.679C122.58,130.726,102.814,142.782,80.244,142.782z"/>
	</g>
</g>
</svg>
