<?xml version="1.0" encoding="utf-8"?>
<!-- Generator: Adobe Illustrator 16.0.0, SVG Export Plug-In . SVG Version: 6.00 Build 0)  -->
<!DOCTYPE svg PUBLIC "-//W3C//DTD SVG 1.1//EN" "http://www.w3.org/Graphics/SVG/1.1/DTD/svg11.dtd">
<svg version="1.1" id="Layer_1" xmlns="http://www.w3.org/2000/svg" xmlns:xlink="http://www.w3.org/1999/xlink" x="0px" y="0px"
	 width="100px" height="100px" viewBox="0 0 100 100" enable-background="new 0 0 100 100" xml:space="preserve">
<path fill-rule="evenodd" clip-rule="evenodd" fill="#FFFFFF" d="M7.898,22.417C8.185,14.783,13.655,7.09,20.937,4.548
	c3.815-1.332,10.7,1.377,11.93,5.346c1.84,5.937,3.169,12.056,4.294,18.175c0.267,1.455-0.844,3.438-1.848,4.786
	c-1.368,1.834-3.187,3.355-4.917,4.892c-1.554,1.38-1.994,2.842-1.122,4.79c5.872,13.122,15.396,22.969,27.367,30.635
	c1.605,1.028,3.013,0.736,4.438-0.487c9.182-7.886,7.943-6.895,18.971-3.267c3.232,1.063,6.438,2.409,9.378,4.109
	c4.57,2.646,5.661,10.514,2.215,14.459c-1.351,1.548-2.889,2.936-4.342,4.394c-4.945,4.955-10.944,5.125-17.243,3.719
	C37.364,88.794,18.225,67.841,9.979,36.106C8.825,31.663,8.569,26.985,7.898,22.417z"/>
</svg>
