<?xml version="1.0" encoding="utf-8"?>
<!-- Generator: Adobe Illustrator 16.0.0, SVG Export Plug-In . SVG Version: 6.00 Build 0)  -->
<!DOCTYPE svg PUBLIC "-//W3C//DTD SVG 1.1//EN" "http://www.w3.org/Graphics/SVG/1.1/DTD/svg11.dtd">
<svg version="1.1" id="Layer_1" xmlns="http://www.w3.org/2000/svg" xmlns:xlink="http://www.w3.org/1999/xlink" x="0px" y="0px"
	 width="200px" height="110px" viewBox="0 0 200 110" enable-background="new 0 0 200 110" xml:space="preserve">
<g opacity="0.8">
	<path d="M7.37,103.604v-16.27h4.019l2.621,7.232c0.166,0.482,0.324,0.98,0.473,1.488s0.309,1.01,0.474,1.506h0.101
		c0.166-0.496,0.32-0.998,0.461-1.506c0.14-0.508,0.293-1.006,0.459-1.488l2.571-7.232h3.993v16.27h-3.344v-5.961
		c0-0.403,0.014-0.843,0.047-1.324c0.034-0.479,0.078-0.967,0.125-1.461c0.05-0.487,0.101-0.973,0.152-1.446
		c0.05-0.474,0.098-0.91,0.149-1.31h-0.099l-1.322,3.864l-2.321,6.218h-2.021l-2.32-6.218l-1.298-3.864h-0.099
		c0.05,0.398,0.099,0.836,0.149,1.31c0.051,0.476,0.101,0.959,0.151,1.446c0.051,0.494,0.092,0.981,0.123,1.461
		c0.034,0.481,0.05,0.921,0.05,1.324v5.961H7.37z"/>
	<path d="M24.314,103.604l5.089-16.27h4.417l5.092,16.27h-3.896l-1-3.865h-4.965l-1,3.865H24.314z M30.204,95.371l-0.401,1.497h3.47
		l-0.375-1.497c-0.234-0.816-0.457-1.682-0.673-2.598c-0.217-0.914-0.433-1.799-0.649-2.646h-0.102
		c-0.199,0.863-0.403,1.752-0.611,2.657C30.657,93.693,30.436,94.555,30.204,95.371z"/>
	<path d="M47.624,103.902c-1.115,0-2.159-0.178-3.133-0.534c-0.971-0.36-1.817-0.89-2.531-1.589
		c-0.716-0.699-1.278-1.563-1.686-2.605c-0.409-1.04-0.611-2.24-0.611-3.605c0-1.348,0.207-2.549,0.626-3.604
		c0.413-1.056,0.985-1.953,1.707-2.685c0.723-0.729,1.567-1.287,2.533-1.672c0.967-0.381,1.989-0.573,3.071-0.573
		c1.18,0,2.194,0.217,3.043,0.649s1.54,0.924,2.071,1.471l-1.922,2.348c-0.416-0.365-0.858-0.673-1.322-0.923
		c-0.466-0.25-1.048-0.374-1.748-0.374c-0.633,0-1.209,0.122-1.734,0.361c-0.524,0.242-0.978,0.586-1.358,1.033
		c-0.384,0.452-0.677,0.998-0.886,1.647c-0.208,0.651-0.312,1.387-0.312,2.198c0,1.679,0.38,2.981,1.138,3.906
		c0.755,0.922,1.899,1.381,3.432,1.381c0.331,0,0.656-0.039,0.973-0.121c0.314-0.086,0.575-0.209,0.775-0.377v-2.793h-2.696v-2.996
		h5.94v7.488c-0.567,0.545-1.314,1.016-2.248,1.396C49.813,103.713,48.771,103.902,47.624,103.902z"/>
	<path d="M56.356,103.604v-16.27h3.769l4.243,8.084l1.599,3.596h0.098c-0.081-0.863-0.177-1.828-0.285-2.896
		c-0.11-1.063-0.163-2.078-0.163-3.045v-5.739h3.495v16.27h-3.766l-4.244-8.111l-1.597-3.544h-0.101
		c0.084,0.899,0.181,1.862,0.289,2.896s0.161,2.028,0.161,2.991v5.767h-3.499L56.356,103.604L56.356,103.604z"/>
	<path d="M72.954,103.604v-16.27h10.18v3.096H76.62v3.266h5.54v3.068h-5.54v3.743h6.763v3.097H72.954z"/>
	<path d="M89.798,103.604V90.43h-4.467v-3.095h12.625v3.095h-4.465v13.176h-3.693V103.604z"/>
	<path d="M99.429,103.902c-0.635,0-1.163-0.221-1.585-0.659c-0.425-0.442-0.636-0.983-0.636-1.636c0-0.664,0.211-1.221,0.636-1.658
		c0.422-0.441,0.951-0.66,1.585-0.66c0.634,0,1.156,0.221,1.583,0.66c0.422,0.439,0.641,0.994,0.641,1.658
		c0,0.651-0.219,1.192-0.641,1.636C100.588,103.684,100.063,103.902,99.429,103.902z"/>
	<path d="M105.094,103.604v-16.27h4.018l2.621,7.232c0.166,0.482,0.324,0.98,0.478,1.488c0.146,0.508,0.306,1.01,0.472,1.506h0.102
		c0.16-0.496,0.32-0.998,0.458-1.506c0.146-0.508,0.296-1.006,0.462-1.488l2.57-7.232h3.992v16.27h-3.344v-5.961
		c0-0.403,0.014-0.843,0.053-1.324c0.029-0.479,0.068-0.967,0.121-1.461c0.051-0.487,0.102-0.973,0.149-1.446
		c0.052-0.474,0.101-0.91,0.151-1.31h-0.101l-1.321,3.864l-2.322,6.218h-2.02l-2.324-6.218l-1.295-3.864h-0.104
		c0.052,0.398,0.104,0.836,0.151,1.31c0.051,0.476,0.101,0.959,0.153,1.446c0.05,0.494,0.089,0.981,0.121,1.461
		c0.036,0.481,0.052,0.921,0.052,1.324v5.961H105.094z"/>
	<path d="M122.039,103.604l5.089-16.27h4.419l5.09,16.27h-3.893l-0.994-3.865h-4.968l-1,3.865H122.039z M127.928,95.371
		l-0.398,1.497H131l-0.375-1.497c-0.234-0.816-0.457-1.682-0.673-2.598c-0.22-0.914-0.437-1.799-0.649-2.646h-0.104
		c-0.197,0.863-0.401,1.752-0.608,2.657C128.379,93.693,128.163,94.555,127.928,95.371z"/>
	<path d="M138.409,103.604v-16.27h5.864c0.861,0,1.672,0.084,2.434,0.249c0.754,0.165,1.418,0.446,1.982,0.838
		c0.564,0.39,1.014,0.908,1.35,1.558c0.331,0.648,0.497,1.455,0.497,2.42c0,1.197-0.263,2.186-0.786,2.957
		c-0.525,0.771-1.227,1.354-2.107,1.735l3.692,6.513h-4.12l-3.119-5.862h-2.019v5.862H138.409z M142.077,94.82h1.896
		c0.967,0,1.705-0.204,2.209-0.611c0.506-0.407,0.762-1.008,0.762-1.811c0-0.799-0.256-1.354-0.762-1.672
		c-0.504-0.315-1.242-0.475-2.209-0.475h-1.896V94.82z"/>
	<path d="M153.708,103.604v-16.27h3.666v6.662h0.099l4.844-6.662h4.043l-4.916,6.484l5.813,9.785h-4.014l-3.972-6.863l-1.896,2.499
		v4.364H153.708L153.708,103.604z"/>
	<path d="M169.031,103.604v-16.27h10.181v3.096h-6.517v3.266h5.543v3.068h-5.543v3.743h6.767v3.097H169.031z"/>
	<path d="M185.871,103.604V90.43h-4.469v-3.095h12.63v3.095h-4.466v13.176h-3.695V103.604z"/>
</g>
<g>
	<g>
		<path fill="#58BF91" d="M97.243,20.735c-14.59,0-26.462,11.872-26.462,26.458c0,14.592,11.872,26.461,26.462,26.461
			c14.589,0,26.459-11.869,26.459-26.461C123.702,32.606,111.832,20.735,97.243,20.735z M97.243,24.617
			c12.446,0,22.581,10.127,22.581,22.578c0,3.159-0.658,6.161-1.836,8.898c-1.266-6.028-1.599-12.158-2.385-18.258
			c-0.193-1.493-2.066-2.814-3.315-1.375c-2.182,2.512-3.451,5.746-4.232,9.193c-0.436-3.102-0.83-6.199-1.28-9.296
			c-0.252-1.774-2.758-1.751-3.549-0.47c-3.051,4.951-3.933,10.586-5.559,16.003c-0.268-3.147-0.334-6.323-0.916-9.441
			c-0.23-1.201-1.861-1.817-2.854-1.156c-2.296,1.513-3.814,3.535-4.994,5.786c0.024-2.984-0.236-5.921-1.58-8.782
			c-0.661-1.402-2.623-1.111-3.354,0c-3.379,5.124-5.264,10.928-8.016,16.356c-0.819-2.335-1.292-4.842-1.292-7.458
			C74.663,34.744,84.789,24.617,97.243,24.617z M97.243,69.771c-8.133,0-15.254-4.337-19.227-10.806
			c0.022-0.035,0.057-0.052,0.08-0.088c2.704-4.725,4.478-9.864,6.956-14.675c0.524,4.261-0.532,8.879-0.075,13.053
			c0.245,2.221,2.985,2.588,3.817,0.515c1.411-3.524,2.287-7.775,4.669-10.847c0.401,4.233,0.329,8.47,1.616,12.611
			c0.475,1.526,2.742,2.019,3.546,0.462c2.671-5.124,3.451-10.878,5.281-16.256c0.709,5.291,1.442,10.572,2.626,15.792
			c0.517,2.266,3.634,1.552,3.822-0.516c0.341-3.955,0.538-9.996,2.078-14.817c0.466,4.492,0.925,8.977,1.9,13.408
			c0.264,1.17,1.257,1.525,2.159,1.326C112.514,65.422,105.384,69.771,97.243,69.771z"/>
	</g>
</g>
</svg>
