<?xml version="1.0" encoding="utf-8"?>
<!-- Generator: Adobe Illustrator 16.0.0, SVG Export Plug-In . SVG Version: 6.00 Build 0)  -->
<!DOCTYPE svg PUBLIC "-//W3C//DTD SVG 1.1//EN" "http://www.w3.org/Graphics/SVG/1.1/DTD/svg11.dtd">
<svg version="1.1" id="Layer_1" xmlns="http://www.w3.org/2000/svg" xmlns:xlink="http://www.w3.org/1999/xlink" x="0px" y="0px"
	 width="100px" height="100px" viewBox="0 0 100 100" enable-background="new 0 0 100 100" xml:space="preserve">
<rect x="2.833" y="3.167" fill="#EAEAEA" width="94.667" height="95"/>
<path fill="#824327" d="M32.694,36.353c0.367,1.193,0.421,2.082,0.375,3.282c-0.005,0.159-0.021,0.403-0.015,0.666h1.611
	c0.016-0.318,0.001-0.62-0.009-0.806c-0.047-0.873-0.015-1.566,0.034-2.435c0.065-1.167-0.088-2.366,0.035-3.526
	c0.325-3.047,3.088-5.197,6.16-5.425c2.255-0.167,4.515,0.271,6.774,0.274c2.793,0.007,4.052-1.263,6.254-2.556
	c0.591-0.347,0.239-0.389,0.854-0.243c0.399,0.096,0.912,0.61,1.258,0.81c2.091,1.209,5.85,2.406,6.453,4.955
	c0.476,2.003,0.378,4.052,0.32,6.088c-0.008,0.288-0.269,1.839-0.204,2.863h1.259c0.402-1.23,0.94-2.901,1.071-3.548
	c0.531-2.587,0.406-3.724,0.533-4.827c0.456-3.903,0.685-7.64-1.866-10.914c-2.733-3.506-6.778-5.555-8.939-5.294
	c-0.123,0.016-1.585,0.139-1.401,0.296c-0.77-0.655-2.119-0.699-3.071-0.915c-5.073-1.141-11.489,1.833-15.174,5.012
	c-3.892,3.355-3.316,7.672-2.875,11.816C32.285,33.373,32.271,34.972,32.694,36.353z"/>
<g id="XMLID_1_">
	<path fill="#706451" d="M47.98,93.13c-0.738-0.654-1.514-1.315-2.352-1.975c-2.907-2.296-5.71-4.028-8.163-5.33
		c0,0,4.421-6.35,3.922-6.35l-9.248,1.556c0,0-0.572-0.308-0.231-7.111c1.144-5.139,3.688-8.187,5.706-9.874
		c-0.33,0.112-12.232,4.968-18.521,6.922c-3.215,0.998-6.62,2.162-8.103,5.497c-0.583,1.312-0.525,3.297-0.691,4.709
		c-0.466,3.969-0.714,7.965-0.916,11.956H47.98z"/>
	<path fill="#877960" d="M52.545,92.456c0,0-15.385-18.143-13.118-25.286c0.993-2.815,1.041-4.993,1.041-4.993
		s-0.388,0.154-0.993,0.505c-0.523,0.293-1.26,0.762-2.09,1.458c0,0-0.004,0-0.009,0.006c-2.05,1.734-4.635,4.867-5.796,10.15
		c-0.346,6.993,0.235,7.311,0.235,7.311l9.395-1.599c-0.831,1.575-4.544,6.508-4.544,6.508c2.493,1.338,5.899,3.138,8.853,5.498
		c0.467,0.373,0.889,0.744,1.325,1.116h1.201h4.208h0.056c-0.01-0.012-0.025-0.03-0.037-0.045L52.545,92.456z"/>
	<path fill="#877960" d="M90.689,93.13c-0.133-1.773-0.271-3.555-0.431-5.359c-0.439-4.986-0.401-11.063-3.656-15.238
		c-2.365-3.033-6.408-3.7-9.883-4.759c-4.143-1.265-8.284-2.528-12.428-3.792c2.313,2.063,4.857,6.468,4.921,15.888
		c-2.681,0.518-7.243,0.834-8.555,0.3c1.14,0.966,4.698,4.234,4.699,4.236c-0.159-0.147-3.603,2.273-3.778,2.457
		c-2.44,2.528-8.182,2.484-9.828,5.594c-0.056,0.106-0.134,0.355-0.223,0.674H90.689z"/>
	<g>
		<path fill="#ECA982" d="M40.191,55.033c-0.014,0.005-0.028,0.005-0.032,0.01c-0.014,0.004-0.022,0.004-0.022,0.004
			s0.109,0.612,0.213,1.583c0.281,2.508,0.53,7.434-1.184,10.54c1.685,3.767,2.677,7.357,10.545,7.599V53.452
			C45.236,53.938,40.729,54.915,40.191,55.033z"/>
		<path fill="#DE9F7A" d="M59.104,55.728c-0.015-0.159-0.023-0.322-0.028-0.481c-0.009-0.068-0.009-0.131-0.014-0.199
			c-0.083-2.076-4.7-2.101-9.352-1.595v21.316c1.134,0.034,2.412,0,3.855-0.115c4.988-1.134,7.709-3.628,9.297-8.39
			C60.932,64.009,59.402,59.745,59.104,55.728z"/>
		<path fill="#CE9174" d="M40.191,55.033c-0.014,0.005-0.028,0.005-0.032,0.01c-0.014,0.004-0.022,0.004-0.022,0.004
			s4.912,7.062,9.574,7.355v-8.95C45.236,53.938,40.729,54.915,40.191,55.033z"/>
		<path fill="#C0876C" d="M59.063,55.047c-0.083-2.076-4.7-2.101-9.352-1.595v8.95c0.189,0.012,0.378,0.018,0.567,0.006
			c3.156-0.35,6.79-3.987,8.798-7.162C59.067,55.178,59.067,55.115,59.063,55.047z"/>
	</g>
	<path fill="#CAD9E0" d="M55.493,73.746c-2.346,0.879-4.456,0.803-5.782,0.626c-0.428-0.057-0.776-0.123-1.021-0.172
		c-5.855-1.175-8.907-6.005-9.524-7.03c-1.646,5.187,6.149,16.168,10.545,21.798c1.658,2.123,2.834,3.488,2.834,3.488l6.604-12.255
		c0.126-0.236,0.249-0.473,0.371-0.713c2.046-4.045,3.171-8.504,3.206-13.039C62.379,67.328,60.441,71.896,55.493,73.746z"/>
	<path fill="#706451" d="M66.714,84.638c0,0-3.67-2.357-5.163-3.688c1.836,0.282,5.628-0.021,7.986-0.477
		c-0.056-8.415-2.049-12.899-4.122-15.294c-0.373-0.465-0.751-0.866-1.123-1.198c-1.941-1.731-3.729-1.805-3.729-1.805
		s0.487,1.691,1.907,4.168c-0.004,0.036,0.256,0.073,0.256,0.104c-0.035,4.535-1.16,8.994-3.206,13.039
		c-0.122,0.24-0.245,0.477-0.371,0.713l-8.314,11.649c-0.193,0.401-0.385,0.832-0.573,1.279h0.299h2.095h0.942
		C57.647,89.056,66.633,84.696,66.714,84.638z"/>
</g>
<path fill="#754C29" d="M49.76,7.796C49.744,7.797,49.727,7.8,49.711,7.8v0.016C49.727,7.81,49.743,7.803,49.76,7.796z"/>
<path fill="#EBB39A" d="M65.449,37.649c-0.855,0.501-1.738,1.76-2.017,2.781c-0.6-2.572,0.69-5.252,0.051-7.783
	c-0.509-2.018-2.317-3.971-3.984-5.12c-1.058-0.729-2.453-1.184-3.501-1.917c0.272,0.243,0.509,0.542,0.704,0.836
	c-0.702,0.009-1.396-0.536-2.046-0.833c-1.539-0.706-2.992-1.074-4.693-1.078c-0.086,0-0.167-0.007-0.252-0.008v35.62
	c2.345-0.016,2.553-0.489,3.591-1.249c1.244-0.912,2.584-1.534,3.939-2.272c0.579-0.314,1.021-0.662,1.395-1.062
	c0.494-0.526,0.868-1.146,1.258-1.926c0.4-0.797,1.941-4.119,2.558-4.899c-0.041,0.053,0.76,0.284,0.832,0.291
	c0.321,0.031,0.688-0.012,0.977-0.165c0.504-0.265,0.9-0.885,1.179-1.364c0.675-1.161,0.914-2.503,1.393-3.746
	c0.519-1.346,1.455-2.695,1.415-4.193C68.206,38.014,66.917,36.79,65.449,37.649z"/>
<path fill="#F9BDA3" d="M44.596,23.567c-1.324-0.293-2.294,0.151-3.269-1.09c-0.263,1.419-1.435,2.238-2.285,3.304
	c-1.877,2.36-3.736,3.373-3.869,6.704c-0.09-0.332-0.288-0.682-0.398-1.015c-0.246,0.601-0.408,1.183-0.517,1.755
	c-0.009,0.376-0.057,0.743-0.139,1.101c-0.163,2.51,0.668,4.861,0.964,7.527c-0.168-1.512-1.979-2.828-3.187-4.019
	c-0.101,0.085-0.204,0.169-0.308,0.25c-0.11,0.083-0.204,0.178-0.278,0.282c-1.066,1.506,0.529,4.023,1.057,5.391
	c0.422,1.096,0.655,2.264,1.169,3.325c0.221,0.456,0.501,0.944,0.788,1.359c0.274,0.397,0.987,0.519,1.44,0.454
	c0.237-0.035,0.472-0.154,0.594-0.361c0.823,1.855,2.034,3.29,2.946,5.108c0.664,1.322,1.272,2.192,2.529,2.911
	c0.043,0.024,0.08,0.05,0.124,0.074c1.357,0.738,2.695,1.36,3.94,2.272c1.055,0.772,1.016,1.25,3.703,1.25
	c0.04,0,0.073-0.001,0.111-0.001v-35.62C47.861,24.48,46.384,23.964,44.596,23.567z"/>
<rect x="2.833" y="3.167" opacity="0.8" fill="#EAEAEA" width="94.667" height="95"/>
</svg>
